<svg width="40" height="29" viewBox="0 0 40 29" fill="none" xmlns="http://www.w3.org/2000/svg">
<g id="Logo" clip-path="url(#clip0_211_821)">
<path id="Vector" fill-rule="evenodd" clip-rule="evenodd" d="M9.98578 4.96142L0 14.8468C1.99734 16.8241 4.27899 18.4905 6.76664 19.7942C7.45424 21.5998 8.53203 23.2931 10 24.7463C15.5229 30.2136 24.4772 30.2136 30 24.7463C31.468 23.2931 32.5458 21.5998 33.2334 19.7941C35.721 18.4905 38.0027 16.8241 40 14.8468L30.0223 4.96946C30.0149 4.96207 30.0075 4.95468 30 4.9473C24.4772 -0.520031 15.5229 -0.520031 10 4.9473C9.99527 4.95201 9.99052 4.95671 9.98578 4.96142ZM29.0445 21.5777C26.1345 22.5499 23.0797 23.0478 20 23.0478C16.9203 23.0478 13.8656 22.5499 10.9556 21.5777C11.2709 21.9918 11.619 22.3892 12 22.7664C16.4183 27.1403 23.5817 27.1403 28 22.7664C28.381 22.3892 28.7292 21.9918 29.0445 21.5777ZM12.2051 6.7292C12.9554 7.21991 13.7532 7.63982 14.588 7.98216C16.3038 8.68572 18.1428 9.04784 20 9.04784C21.8572 9.04784 23.6962 8.68572 25.412 7.98216C26.2468 7.63982 27.0446 7.2199 27.795 6.72918C23.4318 2.61933 16.5682 2.61934 12.2051 6.7292Z" fill="#3B4158"/>
</g>
<defs>
<clipPath id="clip0_211_821">
<rect width="40" height="28" fill="white" transform="translate(0 0.846802)"/>
</clipPath>
</defs>
</svg>
