<svg width="41" height="28" viewBox="0 0 41 28" fill="none" xmlns="http://www.w3.org/2000/svg">
<g id="Logo" clip-path="url(#clip0_211_844)">
<path id="Vector" d="M38.4375 1.69055C38.4375 2.15654 38.8199 2.5343 39.2917 2.5343H40.1458C40.6176 2.5343 41 2.15654 41 1.69055C41 1.22456 40.6176 0.846802 40.1458 0.846802H39.2917C38.8199 0.846802 38.4375 1.22456 38.4375 1.69055Z" fill="#212326"/>
<path id="Vector_2" d="M13.6667 27.8468H17.8161L16.6081 26.6535C16.2877 26.3371 15.8532 26.1593 15.4001 26.1593H13.6667C7.06225 26.1593 1.70833 20.8707 1.70833 14.3468C1.70833 7.82293 7.06225 2.53431 13.6667 2.5343H27.3333C33.9378 2.5343 39.2917 7.82293 39.2917 14.3468C39.2917 20.8707 33.9378 26.1593 27.3333 26.1593H22.2209C21.5413 26.1593 20.8895 25.8926 20.4089 25.4179L18.9937 24.02C18.1928 23.2288 17.1064 22.7843 15.9737 22.7843H13.6667C8.94921 22.7843 5.125 19.0067 5.125 14.3468C5.125 9.68687 8.94921 5.9093 13.6667 5.9093H27.3333C32.0508 5.9093 35.875 9.68687 35.875 14.3468C35.875 19.0067 32.0508 22.7843 27.3333 22.7843H24.0507C23.371 22.7843 22.7193 22.5176 22.2387 22.0429L20.8234 20.645C20.0225 19.8538 18.9362 19.4093 17.8035 19.4093H13.6667C10.8362 19.4093 8.54167 17.1427 8.54167 14.3468C8.54167 11.5509 10.8362 9.2843 13.6667 9.2843H27.3333C30.1638 9.2843 32.4583 11.5509 32.4583 14.3468C32.4583 17.1086 30.2194 19.354 27.4367 19.4083L27.4361 19.4093H26.1861C25.5064 19.4093 24.8547 19.1426 24.3741 18.6679L22.9588 17.27C22.3017 16.6207 21.4524 16.205 20.5429 16.0767L20.5 16.0343H13.6667C12.7232 16.0343 11.9583 15.2788 11.9583 14.3468C11.9583 13.4148 12.7232 12.6593 13.6667 12.6593H27.3333C28.2768 12.6593 29.0417 13.4148 29.0417 14.3468C29.0417 15.2788 28.2768 16.0343 27.3333 16.0343H23.9167L25.1247 17.2276C25.445 17.544 25.8795 17.7218 26.3326 17.7218H27.3333C29.2203 17.7218 30.75 16.2107 30.75 14.3468C30.75 12.4829 29.2203 10.9718 27.3333 10.9718H13.6667C11.7797 10.9718 10.25 12.4829 10.25 14.3468C10.25 16.2107 11.7797 17.7218 13.6667 17.7218H19.9389C20.6186 17.7218 21.2703 17.9885 21.7509 18.4632L23.1662 19.8611C23.9671 20.6523 25.0534 21.0968 26.1861 21.0968H27.7604V21.0838C31.3354 20.8661 34.1667 17.933 34.1667 14.3468C34.1667 10.6189 31.1072 7.5968 27.3333 7.5968H13.6667C9.89275 7.5968 6.83333 10.6189 6.83333 14.3468C6.83333 18.0748 9.89275 21.0968 13.6667 21.0968H17.8035C18.4831 21.0968 19.1349 21.3635 19.6155 21.8382L21.0307 23.2361C21.8317 24.0273 22.918 24.4718 24.0507 24.4718H27.3333C32.9943 24.4718 37.5833 19.9387 37.5833 14.3468C37.5833 8.7549 32.9943 4.2218 27.3333 4.2218H13.6667C8.00573 4.2218 3.41667 8.7549 3.41667 14.3468C3.41667 19.9387 8.00573 24.4718 13.6667 24.4718H15.9737C16.6534 24.4718 17.3051 24.7385 17.7857 25.2132L19.201 26.6111C20.0019 27.4023 21.0882 27.8468 22.2209 27.8468H27.3333C34.8812 27.8468 41 21.8027 41 14.3468C41 6.89095 34.8812 0.846801 27.3333 0.846802L13.6667 0.846805C6.11877 0.846805 -6.59857e-07 6.89096 0 14.3468C6.59857e-07 21.8027 6.11878 27.8468 13.6667 27.8468Z" fill="#212326"/>
</g>
<defs>
<clipPath id="clip0_211_844">
<rect width="41" height="27" fill="white" transform="translate(0 0.846802)"/>
</clipPath>
</defs>
</svg>
