<svg width="52" height="21" viewBox="0 0 52 21" fill="none" xmlns="http://www.w3.org/2000/svg">
<g id="Logo" clip-path="url(#clip0_211_848)">
<path id="Vector" d="M12.3431 0.846802C10.3124 0.846802 8.36487 1.6535 6.92893 3.08944L2.24264 7.77574C0.8067 9.21167 0 11.1592 0 13.1899C0 17.4187 3.42809 20.8468 7.65687 20.8468C9.6876 20.8468 11.6351 20.0401 13.0711 18.6041L16.3126 15.3626C16.3126 15.3625 16.3127 15.3627 16.3126 15.3626L25.7573 5.91787C26.4431 5.23208 27.3733 4.8468 28.3431 4.8468C29.9669 4.8468 31.3435 5.90508 31.8207 7.36952L34.8015 4.38878C33.4417 2.25903 31.0573 0.846802 28.3431 0.846802C26.3124 0.846802 24.3649 1.6535 22.9289 3.08944L10.2427 15.7757C9.55687 16.4615 8.62673 16.8468 7.65687 16.8468C5.63723 16.8468 4 15.2096 4 13.1899C4 12.2201 4.38527 11.2899 5.07107 10.6041L9.75733 5.91787C10.4431 5.23208 11.3733 4.8468 12.3431 4.8468C13.9669 4.8468 15.3435 5.90512 15.8207 7.36961L18.8015 4.38885C17.4417 2.25907 15.0574 0.846802 12.3431 0.846802Z" fill="#394149"/>
<path id="Vector_2" d="M26.2427 15.7757C25.5569 16.4615 24.6268 16.8468 23.6569 16.8468C22.0334 16.8468 20.6569 15.7888 20.1795 14.3246L17.1989 17.3053C18.5587 19.4347 20.9429 20.8468 23.6569 20.8468C25.6877 20.8468 27.6352 20.0401 29.0711 18.6041L41.7574 5.91787C42.4432 5.23208 43.3733 4.8468 44.3432 4.8468C46.3629 4.8468 48 6.48403 48 8.50367C48 9.47354 47.6148 10.4037 46.929 11.0895L42.2427 15.7757C41.5569 16.4615 40.6268 16.8468 39.6569 16.8468C38.0332 16.8468 36.6567 15.7886 36.1794 14.3243L33.1987 17.305C34.5585 19.4347 36.9428 20.8468 39.6569 20.8468C41.6876 20.8468 43.6352 20.0401 45.0711 18.6041L49.7574 13.9179C51.1933 12.4819 52 10.5344 52 8.50367C52 4.2749 48.572 0.846802 44.3432 0.846802C42.3125 0.846802 40.3649 1.6535 38.929 3.08944L26.2427 15.7757Z" fill="#394149"/>
</g>
<defs>
<clipPath id="clip0_211_848">
<rect width="52" height="20" fill="white" transform="translate(0 0.846802)"/>
</clipPath>
</defs>
</svg>
