<svg width="48" height="27" viewBox="0 0 48 27" fill="none" xmlns="http://www.w3.org/2000/svg">
<path d="M23.99 0C20.4187 0 17.5114 2.93388 17.5114 6.52034C17.5114 8.78918 18.6765 10.7925 20.4358 11.9602C18.3109 12.6706 16.4723 13.9985 15.1238 15.7357C14.3782 15.1622 13.5451 14.701 12.647 14.3705C14.0089 13.3595 14.8989 11.7353 14.8989 9.90998C14.8989 6.86823 12.4388 4.37819 9.41547 4.37819C6.39215 4.37819 3.93208 6.86823 3.93208 9.90998C3.93208 11.7364 4.82277 13.3613 6.18579 14.3723C2.57721 15.7039 0 19.1903 0 23.2933V26.1754C0.000369347 26.3951 0.0882567 26.6056 0.244089 26.7604C0.39992 26.9155 0.610779 27.0019 0.830496 27.0011H13.4755C13.5061 27.0045 13.5368 27.0063 13.5674 27.0059H34.4133C34.4439 27.0063 34.4749 27.0045 34.5052 27.0011H47.1511C47.6057 26.9993 47.9739 26.6304 47.975 26.1754V23.2933C47.975 19.1903 45.4022 15.7039 41.7955 14.3719C43.1585 13.3613 44.0492 11.736 44.0492 9.9096C44.0492 6.86785 41.5892 4.37781 38.5658 4.37781C35.5426 4.37781 33.0824 6.86785 33.0824 9.9096C33.0824 11.735 33.9728 13.3594 35.3346 14.3701C34.4347 14.7014 33.6013 15.1641 32.8546 15.739C31.5067 14.0008 29.6707 12.6711 27.5459 11.9602C29.3047 10.7925 30.4703 8.78918 30.4703 6.52034C30.4703 2.93388 27.5614 0 23.9902 0H23.99ZM23.99 1.65436C26.661 1.65436 28.8142 3.82204 28.8142 6.52034C28.8142 9.19757 26.6945 11.3442 24.0531 11.3786C24.0321 11.3786 24.0114 11.3756 23.99 11.3756C23.9686 11.3756 23.9483 11.3786 23.9268 11.3786C21.2854 11.3446 19.1672 9.19766 19.1672 6.52034C19.1672 3.82166 21.3186 1.65436 23.9896 1.65436H23.99ZM9.41556 6.03245C11.5348 6.03245 13.2446 7.75251 13.2446 9.90988C13.2446 12.0528 11.557 13.7655 9.45763 13.7887C9.4436 13.7887 9.42994 13.7873 9.41553 13.7873C9.4015 13.7873 9.38784 13.7887 9.37344 13.7887C7.2741 13.7655 5.58647 12.0524 5.58647 9.90988C5.58647 7.7526 7.29623 6.03245 9.4155 6.03245H9.41556ZM38.5653 6.03245C40.6846 6.03245 42.3944 7.75251 42.3944 9.90988C42.3944 12.0528 40.7067 13.7655 38.6074 13.7887C38.5934 13.7887 38.5797 13.7873 38.5653 13.7873C38.5513 13.7873 38.5376 13.7887 38.5232 13.7887C36.4239 13.7655 34.7363 12.0524 34.7363 9.90988C34.7363 7.7526 36.446 6.03245 38.5653 6.03245H38.5653ZM23.9266 13.0328C23.9477 13.0332 23.9684 13.0358 23.9898 13.0358C24.0108 13.0358 24.0315 13.0328 24.0529 13.0328C29.3502 13.0668 33.5896 17.3427 33.5896 22.6952L33.5892 25.3511H14.3911V22.6952C14.3911 17.3422 18.6293 13.0669 23.9259 13.0328H23.9266ZM9.35223 15.445C9.37327 15.4454 9.39395 15.4479 9.41537 15.4479C9.43679 15.4479 9.4571 15.445 9.47852 15.445C11.2702 15.4594 12.9054 16.0772 14.2074 17.1108C13.2757 18.7593 12.7369 20.6621 12.7369 22.6957V25.3452H1.65369V23.2932C1.65369 18.9431 5.07396 15.4789 9.35203 15.4446L9.35223 15.445ZM38.502 15.445C38.5234 15.4454 38.5437 15.4479 38.5652 15.4479C38.5866 15.4479 38.6069 15.445 38.6283 15.445C42.9064 15.479 46.3266 18.9435 46.3266 23.2935V25.3452H35.2377L35.2374 22.6957C35.2374 20.6632 34.7001 18.7618 33.7702 17.1137C35.0726 16.0787 36.7089 15.4594 38.5021 15.445H38.502Z" fill="#103E13"/>
</svg>
